<svg width="30" height="30" viewBox="0 0 30 30" fill="none" xmlns="http://www.w3.org/2000/svg">
<path d="M28.5405 8.56209L11.93 24.5589C11.7854 24.6987 11.6135 24.8096 11.4242 24.8853C11.2349 24.961 11.032 25 10.827 25C10.6221 25 10.4191 24.961 10.2298 24.8853C10.0406 24.8096 9.86864 24.6987 9.72397 24.5589L2.45689 17.5603C2.31204 17.4208 2.19714 17.2552 2.11874 17.0729C2.04035 16.8906 2 16.6953 2 16.498C2 16.3007 2.04035 16.1054 2.11874 15.9231C2.19714 15.7408 2.31204 15.5752 2.45689 15.4357C2.60175 15.2962 2.77371 15.1856 2.96297 15.1101C3.15223 15.0346 3.35508 14.9957 3.55993 14.9957C3.76479 14.9957 3.96763 15.0346 4.15689 15.1101C4.34615 15.1856 4.51812 15.2962 4.66297 15.4357L10.8283 21.3733L26.337 6.44001C26.6296 6.15828 27.0263 6 27.4401 6C27.8538 6 28.2506 6.15828 28.5431 6.44001C28.8356 6.72175 29 7.10387 29 7.5023C29 7.90074 28.8356 8.28285 28.5431 8.56459L28.5405 8.56209Z" fill="#FAFAFA"/>
</svg>
