<svg width="30" height="30" viewBox="0 0 30 30" fill="none" xmlns="http://www.w3.org/2000/svg">
<path d="M23.4375 3.28123H19.391C18.8235 2.6886 18.1419 2.21698 17.3872 1.89479C16.6326 1.57259 15.8205 1.40649 15 1.40649C14.1795 1.40649 13.3674 1.57259 12.6128 1.89479C11.8581 2.21698 11.1765 2.6886 10.609 3.28123H6.5625C5.9409 3.28123 5.34476 3.52816 4.90522 3.9677C4.46568 4.40724 4.21875 5.00338 4.21875 5.62498V25.3125C4.21875 25.9341 4.46568 26.5302 4.90522 26.9698C5.34476 27.4093 5.9409 27.6562 6.5625 27.6562H23.4375C24.0591 27.6562 24.6552 27.4093 25.0948 26.9698C25.5343 26.5302 25.7812 25.9341 25.7812 25.3125V5.62498C25.7812 5.00338 25.5343 4.40724 25.0948 3.9677C24.6552 3.52816 24.0591 3.28123 23.4375 3.28123ZM18.2473 7.03123H11.7527C11.8659 6.25077 12.2565 5.53719 12.8528 5.02112C13.4491 4.50505 14.2114 4.22101 15 4.22101C15.7886 4.22101 16.5509 4.50505 17.1472 5.02112C17.7435 5.53719 18.1341 6.25077 18.2473 7.03123ZM22.9688 24.8437H7.03125V6.09373H9.07148C8.96209 6.5545 8.90664 7.02641 8.90625 7.49998V8.43748C8.90625 8.81045 9.05441 9.16813 9.31813 9.43185C9.58185 9.69558 9.93954 9.84373 10.3125 9.84373H19.6875C20.0605 9.84373 20.4181 9.69558 20.6819 9.43185C20.9456 9.16813 21.0938 8.81045 21.0938 8.43748V7.49998C21.0934 7.02641 21.0379 6.5545 20.9285 6.09373H22.9688V24.8437Z" fill="#FAFAFA"/>
</svg>
