<svg width="30" height="30" viewBox="0 0 30 30" fill="none" xmlns="http://www.w3.org/2000/svg">
<path d="M15.703 21.6973C15.8341 21.8279 15.9382 21.9831 16.0091 22.1541C16.0801 22.325 16.1166 22.5083 16.1166 22.6934C16.1166 22.8784 16.0801 23.0617 16.0091 23.2326C15.9382 23.4036 15.8341 23.5588 15.703 23.6894L15.0069 24.3855C13.6879 25.7046 11.8989 26.4456 10.0335 26.4456C8.1681 26.4456 6.3791 25.7046 5.06007 24.3855C3.74103 23.0665 3 21.2775 3 19.4121C3 17.5467 3.74103 15.7577 5.06007 14.4387L7.88663 11.6133C9.15399 10.3428 10.8592 9.60495 12.6529 9.55092C14.4466 9.49688 16.1931 10.1307 17.5347 11.3227C17.6732 11.4458 17.7861 11.595 17.8669 11.7617C17.9478 11.9284 17.995 12.1095 18.0059 12.2945C18.0167 12.4795 17.9911 12.6648 17.9303 12.8399C17.8696 13.0149 17.775 13.1763 17.6519 13.3148C17.5287 13.4533 17.3796 13.5662 17.2128 13.6471C17.0461 13.7279 16.865 13.7751 16.68 13.786C16.495 13.7969 16.3097 13.7712 16.1346 13.7105C15.9596 13.6498 15.7982 13.5551 15.6597 13.432C14.8552 12.7176 13.8082 12.3375 12.7327 12.3695C11.6572 12.4015 10.6347 12.8432 9.87413 13.6043L7.04991 16.4262C6.25861 17.2175 5.81406 18.2907 5.81406 19.4098C5.81406 20.5288 6.25861 21.6021 7.04991 22.3934C7.84121 23.1847 8.91444 23.6292 10.0335 23.6292C11.1526 23.6292 12.2258 23.1847 13.0171 22.3934L13.7132 21.6973C13.8438 21.5665 13.9989 21.4628 14.1696 21.392C14.3403 21.3213 14.5233 21.2848 14.7081 21.2848C14.8929 21.2848 15.0759 21.3213 15.2466 21.392C15.4173 21.4628 15.5724 21.5665 15.703 21.6973ZM24.3843 5.05664C23.0642 3.73963 21.2756 3 19.4108 3C17.5461 3 15.7575 3.73963 14.4374 5.05664L13.7413 5.75273C13.4771 6.01691 13.3287 6.37522 13.3287 6.74882C13.3287 7.12243 13.4771 7.48074 13.7413 7.74492C14.0055 8.0091 14.3638 8.15751 14.7374 8.15751C15.111 8.15751 15.4693 8.0091 15.7335 7.74492L16.4296 7.04882C17.2209 6.25753 18.2941 5.81298 19.4132 5.81298C20.5323 5.81298 21.6055 6.25753 22.3968 7.04882C23.1881 7.84012 23.6326 8.91335 23.6326 10.0324C23.6326 11.1515 23.1881 12.2247 22.3968 13.016L19.5714 15.8426C18.8102 16.6033 17.787 17.0444 16.7113 17.0755C15.6356 17.1067 14.5886 16.7256 13.7847 16.0102C13.6462 15.887 13.4848 15.7924 13.3097 15.7317C13.1346 15.6709 12.9493 15.6453 12.7643 15.6562C12.5793 15.667 12.3983 15.7142 12.2315 15.7951C12.0648 15.8759 11.9156 15.9888 11.7925 16.1273C11.6694 16.2658 11.5747 16.4272 11.514 16.6023C11.4533 16.7774 11.4276 16.9627 11.4385 17.1477C11.4494 17.3327 11.4966 17.5137 11.5774 17.6805C11.6583 17.8472 11.7712 17.9964 11.9097 18.1195C13.2503 19.3112 14.9956 19.9454 16.7885 19.8925C18.5814 19.8396 20.2862 19.1034 21.5542 17.8348L24.3808 15.0094C25.6993 13.6896 26.4403 11.9005 26.4409 10.0349C26.4416 8.16931 25.7019 6.3797 24.3843 5.05898V5.05664Z" fill="#FAFAFA"/>
</svg>
