<svg width="128" height="128" viewBox="0 0 128 128" fill="none" xmlns="http://www.w3.org/2000/svg">
<rect width="128" height="128" rx="8" fill="#FCD34D"/>
<path d="M21.504 61.256C22.176 61.256 22.72 61.344 23.136 61.52C23.568 61.68 23.904 61.904 24.144 62.192C24.4 62.496 24.584 62.888 24.696 63.368C24.824 63.848 24.888 64.496 24.888 65.312V71.768C24.888 72.44 25 72.896 25.224 73.136C25.464 73.376 25.864 73.496 26.424 73.496V74C26.12 73.984 25.664 73.968 25.056 73.952C24.448 73.92 23.848 73.904 23.256 73.904C22.648 73.904 22.048 73.92 21.456 73.952C20.88 73.968 20.44 73.984 20.136 74V73.496C20.616 73.496 20.952 73.376 21.144 73.136C21.336 72.896 21.432 72.44 21.432 71.768V64.304C21.432 63.904 21.392 63.56 21.312 63.272C21.232 62.968 21.088 62.736 20.88 62.576C20.672 62.4 20.36 62.312 19.944 62.312C19.512 62.312 19.112 62.432 18.744 62.672C18.392 62.912 18.104 63.248 17.88 63.68C17.672 64.096 17.568 64.568 17.568 65.096V71.768C17.568 72.44 17.664 72.896 17.856 73.136C18.064 73.376 18.4 73.496 18.864 73.496V74C18.576 73.984 18.152 73.968 17.592 73.952C17.048 73.92 16.48 73.904 15.888 73.904C15.28 73.904 14.656 73.92 14.016 73.952C13.376 73.968 12.896 73.984 12.576 74V73.496C13.136 73.496 13.528 73.376 13.752 73.136C13.992 72.896 14.112 72.44 14.112 71.768V64.208C14.112 63.488 14 62.96 13.776 62.624C13.568 62.272 13.168 62.096 12.576 62.096V61.592C13.088 61.64 13.584 61.664 14.064 61.664C14.736 61.664 15.36 61.64 15.936 61.592C16.528 61.528 17.072 61.44 17.568 61.328V63.488C17.968 62.672 18.512 62.096 19.2 61.76C19.888 61.424 20.656 61.256 21.504 61.256ZM33.5102 61.256C34.6782 61.256 35.7022 61.472 36.5822 61.904C37.4622 62.336 38.1502 63.032 38.6462 63.992C39.1422 64.952 39.3902 66.224 39.3902 67.808C39.3902 69.392 39.1422 70.664 38.6462 71.624C38.1502 72.568 37.4622 73.256 36.5822 73.688C35.7022 74.12 34.6782 74.336 33.5102 74.336C32.3742 74.336 31.3582 74.12 30.4622 73.688C29.5822 73.256 28.8862 72.568 28.3742 71.624C27.8782 70.664 27.6302 69.392 27.6302 67.808C27.6302 66.224 27.8782 64.952 28.3742 63.992C28.8862 63.032 29.5822 62.336 30.4622 61.904C31.3582 61.472 32.3742 61.256 33.5102 61.256ZM33.5102 61.736C32.8702 61.736 32.3342 62.216 31.9022 63.176C31.4702 64.12 31.2542 65.664 31.2542 67.808C31.2542 69.952 31.4702 71.496 31.9022 72.44C32.3342 73.384 32.8702 73.856 33.5102 73.856C34.1662 73.856 34.7022 73.384 35.1182 72.44C35.5502 71.496 35.7662 69.952 35.7662 67.808C35.7662 65.664 35.5502 64.12 35.1182 63.176C34.7022 62.216 34.1662 61.736 33.5102 61.736ZM36.1742 54.392C36.4462 54.6 36.5902 54.888 36.6062 55.256C36.6222 55.624 36.5022 55.968 36.2462 56.288C35.9902 56.608 35.6782 56.896 35.3102 57.152C34.9422 57.408 34.5022 57.72 33.9902 58.088C33.4942 58.456 32.8942 58.968 32.1902 59.624L31.9262 59.408C32.4062 58.544 32.7582 57.824 32.9822 57.248C33.2062 56.656 33.3982 56.152 33.5582 55.736C33.7182 55.32 33.9342 54.96 34.2062 54.656C34.4462 54.336 34.7582 54.152 35.1422 54.104C35.5422 54.04 35.8862 54.136 36.1742 54.392ZM45.6405 61.256C46.3125 61.256 46.8965 61.344 47.3925 61.52C47.9045 61.68 48.2725 61.84 48.4965 62C49.0405 62.368 49.3765 62.128 49.5045 61.28H50.0085C49.9765 61.728 49.9525 62.28 49.9365 62.936C49.9205 63.576 49.9125 64.432 49.9125 65.504H49.4085C49.3285 64.912 49.1765 64.328 48.9525 63.752C48.7285 63.176 48.4005 62.704 47.9685 62.336C47.5525 61.968 47.0085 61.784 46.3365 61.784C45.8725 61.784 45.4805 61.92 45.1605 62.192C44.8405 62.448 44.6805 62.824 44.6805 63.32C44.6805 63.8 44.8245 64.224 45.1125 64.592C45.4005 64.944 45.7685 65.288 46.2165 65.624C46.6805 65.944 47.1605 66.288 47.6565 66.656C48.1845 67.056 48.6645 67.456 49.0965 67.856C49.5285 68.24 49.8725 68.664 50.1285 69.128C50.3845 69.592 50.5125 70.144 50.5125 70.784C50.5125 71.504 50.3045 72.136 49.8885 72.68C49.4725 73.208 48.9205 73.616 48.2325 73.904C47.5605 74.192 46.8085 74.336 45.9765 74.336C45.4965 74.336 45.0645 74.288 44.6805 74.192C44.3125 74.096 43.9925 73.976 43.7205 73.832C43.5125 73.736 43.3125 73.648 43.1205 73.568C42.9445 73.472 42.7765 73.392 42.6165 73.328C42.4565 73.28 42.3125 73.336 42.1845 73.496C42.0725 73.656 41.9845 73.88 41.9205 74.168H41.4165C41.4485 73.656 41.4725 73.032 41.4885 72.296C41.5045 71.56 41.5125 70.584 41.5125 69.368H42.0165C42.1125 70.232 42.2885 71 42.5445 71.672C42.8005 72.328 43.1445 72.848 43.5765 73.232C44.0245 73.6 44.5845 73.784 45.2565 73.784C45.5285 73.784 45.7925 73.728 46.0485 73.616C46.3045 73.504 46.5125 73.32 46.6725 73.064C46.8485 72.808 46.9365 72.48 46.9365 72.08C46.9365 71.376 46.7045 70.792 46.2405 70.328C45.7925 69.864 45.2165 69.36 44.5125 68.816C44.0005 68.4 43.5125 67.992 43.0485 67.592C42.6005 67.176 42.2325 66.728 41.9445 66.248C41.6565 65.752 41.5125 65.192 41.5125 64.568C41.5125 63.848 41.7045 63.24 42.0885 62.744C42.4725 62.248 42.9765 61.88 43.6005 61.64C44.2405 61.384 44.9205 61.256 45.6405 61.256ZM54.6384 70.64C55.2624 70.64 55.7584 70.808 56.1264 71.144C56.4944 71.464 56.6784 71.912 56.6784 72.488C56.6784 73.064 56.4944 73.52 56.1264 73.856C55.7584 74.176 55.2624 74.336 54.6384 74.336C54.0144 74.336 53.5184 74.176 53.1504 73.856C52.7824 73.52 52.5984 73.064 52.5984 72.488C52.5984 71.912 52.7824 71.464 53.1504 71.144C53.5184 70.808 54.0144 70.64 54.6384 70.64ZM63.1952 61.256C63.8672 61.256 64.4512 61.344 64.9472 61.52C65.4592 61.68 65.8272 61.84 66.0512 62C66.5952 62.368 66.9312 62.128 67.0592 61.28H67.5632C67.5312 61.728 67.5072 62.28 67.4912 62.936C67.4752 63.576 67.4672 64.432 67.4672 65.504H66.9632C66.8832 64.912 66.7312 64.328 66.5072 63.752C66.2832 63.176 65.9552 62.704 65.5232 62.336C65.1072 61.968 64.5632 61.784 63.8912 61.784C63.4272 61.784 63.0352 61.92 62.7152 62.192C62.3952 62.448 62.2352 62.824 62.2352 63.32C62.2352 63.8 62.3792 64.224 62.6672 64.592C62.9552 64.944 63.3232 65.288 63.7712 65.624C64.2352 65.944 64.7152 66.288 65.2112 66.656C65.7392 67.056 66.2192 67.456 66.6512 67.856C67.0832 68.24 67.4272 68.664 67.6832 69.128C67.9392 69.592 68.0672 70.144 68.0672 70.784C68.0672 71.504 67.8592 72.136 67.4432 72.68C67.0272 73.208 66.4752 73.616 65.7872 73.904C65.1152 74.192 64.3632 74.336 63.5312 74.336C63.0512 74.336 62.6192 74.288 62.2352 74.192C61.8672 74.096 61.5472 73.976 61.2752 73.832C61.0672 73.736 60.8672 73.648 60.6752 73.568C60.4992 73.472 60.3312 73.392 60.1712 73.328C60.0112 73.28 59.8672 73.336 59.7392 73.496C59.6272 73.656 59.5392 73.88 59.4752 74.168H58.9712C59.0032 73.656 59.0272 73.032 59.0432 72.296C59.0592 71.56 59.0672 70.584 59.0672 69.368H59.5712C59.6672 70.232 59.8432 71 60.0992 71.672C60.3552 72.328 60.6992 72.848 61.1312 73.232C61.5792 73.6 62.1392 73.784 62.8112 73.784C63.0832 73.784 63.3472 73.728 63.6032 73.616C63.8592 73.504 64.0672 73.32 64.2272 73.064C64.4032 72.808 64.4912 72.48 64.4912 72.08C64.4912 71.376 64.2592 70.792 63.7952 70.328C63.3472 69.864 62.7712 69.36 62.0672 68.816C61.5552 68.4 61.0672 67.992 60.6032 67.592C60.1552 67.176 59.7872 66.728 59.4992 66.248C59.2112 65.752 59.0672 65.192 59.0672 64.568C59.0672 63.848 59.2592 63.24 59.6432 62.744C60.0272 62.248 60.5312 61.88 61.1552 61.64C61.7952 61.384 62.4752 61.256 63.1952 61.256ZM74.4011 55.232V63.488C74.8011 62.656 75.3371 62.08 76.0091 61.76C76.6971 61.424 77.4651 61.256 78.3131 61.256C79.0011 61.256 79.5531 61.344 79.9691 61.52C80.3851 61.68 80.7131 61.904 80.9531 62.192C81.2251 62.496 81.4171 62.888 81.5291 63.368C81.6571 63.848 81.7211 64.496 81.7211 65.312V71.768C81.7211 72.44 81.8331 72.896 82.0571 73.136C82.2971 73.376 82.6971 73.496 83.2571 73.496V74C82.9531 73.984 82.4891 73.968 81.8651 73.952C81.2571 73.92 80.6651 73.904 80.0891 73.904C79.4651 73.904 78.8571 73.92 78.2651 73.952C77.6891 73.968 77.2571 73.984 76.9691 74V73.496C77.4491 73.496 77.7851 73.376 77.9771 73.136C78.1691 72.896 78.2651 72.44 78.2651 71.768V64.304C78.2651 63.904 78.2251 63.56 78.1451 63.272C78.0651 62.968 77.9131 62.736 77.6891 62.576C77.4811 62.4 77.1771 62.312 76.7771 62.312C76.3451 62.312 75.9451 62.432 75.5771 62.672C75.2251 62.896 74.9371 63.216 74.7131 63.632C74.5051 64.048 74.4011 64.528 74.4011 65.072V71.768C74.4011 72.44 74.4971 72.896 74.6891 73.136C74.8811 73.376 75.2171 73.496 75.6971 73.496V74C75.4091 73.984 74.9851 73.968 74.4251 73.952C73.8651 73.92 73.2971 73.904 72.7211 73.904C72.0971 73.904 71.4651 73.92 70.8251 73.952C70.2011 73.968 69.7291 73.984 69.4091 74V73.496C69.9691 73.496 70.3611 73.376 70.5851 73.136C70.8251 72.896 70.9451 72.44 70.9451 71.768V58.112C70.9451 57.392 70.8331 56.864 70.6091 56.528C70.4011 56.176 70.0011 56 69.4091 56V55.496C69.9211 55.544 70.4171 55.568 70.8971 55.568C71.5531 55.568 72.1771 55.544 72.7691 55.496C73.3611 55.432 73.9051 55.344 74.4011 55.232ZM90.3227 61.256C91.4907 61.256 92.5147 61.472 93.3947 61.904C94.2747 62.336 94.9627 63.032 95.4587 63.992C95.9547 64.952 96.2027 66.224 96.2027 67.808C96.2027 69.392 95.9547 70.664 95.4587 71.624C94.9627 72.568 94.2747 73.256 93.3947 73.688C92.5147 74.12 91.4907 74.336 90.3227 74.336C89.1867 74.336 88.1707 74.12 87.2747 73.688C86.3947 73.256 85.6987 72.568 85.1867 71.624C84.6907 70.664 84.4427 69.392 84.4427 67.808C84.4427 66.224 84.6907 64.952 85.1867 63.992C85.6987 63.032 86.3947 62.336 87.2747 61.904C88.1707 61.472 89.1867 61.256 90.3227 61.256ZM90.3227 61.736C89.6827 61.736 89.1467 62.216 88.7147 63.176C88.2827 64.12 88.0667 65.664 88.0667 67.808C88.0667 69.952 88.2827 71.496 88.7147 72.44C89.1467 73.384 89.6827 73.856 90.3227 73.856C90.9787 73.856 91.5147 73.384 91.9307 72.44C92.3627 71.496 92.5787 69.952 92.5787 67.808C92.5787 65.664 92.3627 64.12 91.9307 63.176C91.5147 62.216 90.9787 61.736 90.3227 61.736ZM105.957 61.256C106.469 61.256 106.885 61.368 107.205 61.592C107.525 61.8 107.757 62.072 107.901 62.408C108.061 62.744 108.141 63.096 108.141 63.464C108.141 64.056 107.965 64.544 107.613 64.928C107.277 65.296 106.829 65.48 106.269 65.48C105.709 65.48 105.269 65.344 104.949 65.072C104.645 64.784 104.493 64.408 104.493 63.944C104.493 63.496 104.589 63.128 104.781 62.84C104.989 62.536 105.245 62.28 105.549 62.072C105.325 62.008 105.101 62.016 104.877 62.096C104.573 62.144 104.285 62.272 104.013 62.48C103.741 62.672 103.509 62.92 103.317 63.224C103.125 63.512 102.973 63.832 102.861 64.184C102.749 64.52 102.693 64.848 102.693 65.168V71.528C102.693 72.296 102.877 72.816 103.245 73.088C103.629 73.36 104.197 73.496 104.949 73.496V74C104.581 73.984 104.045 73.968 103.341 73.952C102.637 73.92 101.901 73.904 101.133 73.904C100.493 73.904 99.845 73.92 99.189 73.952C98.533 73.968 98.037 73.984 97.701 74V73.496C98.261 73.496 98.653 73.376 98.877 73.136C99.117 72.896 99.237 72.44 99.237 71.768V64.208C99.237 63.488 99.125 62.96 98.901 62.624C98.693 62.272 98.293 62.096 97.701 62.096V61.592C98.213 61.64 98.709 61.664 99.189 61.664C99.861 61.664 100.485 61.64 101.061 61.592C101.653 61.528 102.197 61.44 102.693 61.328V63.56C102.885 63.128 103.141 62.736 103.461 62.384C103.781 62.032 104.149 61.76 104.565 61.568C104.981 61.36 105.445 61.256 105.957 61.256ZM113.776 57.656V61.592H116.608V62.072H113.776V71.768C113.776 72.248 113.864 72.592 114.04 72.8C114.216 72.992 114.48 73.088 114.832 73.088C115.12 73.088 115.408 72.984 115.696 72.776C115.984 72.552 116.24 72.176 116.464 71.648L116.872 71.864C116.616 72.584 116.224 73.176 115.696 73.64C115.184 74.104 114.48 74.336 113.584 74.336C113.056 74.336 112.592 74.264 112.192 74.12C111.792 73.992 111.456 73.792 111.184 73.52C110.832 73.168 110.6 72.736 110.488 72.224C110.376 71.696 110.32 71.016 110.32 70.184V62.072H108.304V61.592H110.32V58.424C110.992 58.424 111.608 58.368 112.168 58.256C112.744 58.128 113.28 57.928 113.776 57.656Z" fill="#09090B"/>
</svg>
