<svg width="30" height="30" viewBox="0 0 30 30" fill="none" xmlns="http://www.w3.org/2000/svg">
<path d="M26 5H21.5V3.5C21.5 2.57174 21.1313 1.6815 20.4749 1.02513C19.8185 0.368749 18.9283 0 18 0H12C11.0717 0 10.1815 0.368749 9.52513 1.02513C8.86875 1.6815 8.5 2.57174 8.5 3.5V5H4C3.60218 5 3.22064 5.15804 2.93934 5.43934C2.65804 5.72064 2.5 6.10218 2.5 6.5C2.5 6.89782 2.65804 7.27936 2.93934 7.56066C3.22064 7.84196 3.60218 8 4 8H4.5V25C4.5 25.663 4.76339 26.2989 5.23223 26.7678C5.70107 27.2366 6.33696 27.5 7 27.5H23C23.663 27.5 24.2989 27.2366 24.7678 26.7678C25.2366 26.2989 25.5 25.663 25.5 25V8H26C26.3978 8 26.7794 7.84196 27.0607 7.56066C27.342 7.27936 27.5 6.89782 27.5 6.5C27.5 6.10218 27.342 5.72064 27.0607 5.43934C26.7794 5.15804 26.3978 5 26 5ZM11.5 3.5C11.5 3.36739 11.5527 3.24021 11.6464 3.14645C11.7402 3.05268 11.8674 3 12 3H18C18.1326 3 18.2598 3.05268 18.3536 3.14645C18.4473 3.24021 18.5 3.36739 18.5 3.5V5H11.5V3.5ZM22.5 24.5H7.5V8H22.5V24.5ZM13.5 12V20C13.5 20.3978 13.342 20.7794 13.0607 21.0607C12.7794 21.342 12.3978 21.5 12 21.5C11.6022 21.5 11.2206 21.342 10.9393 21.0607C10.658 20.7794 10.5 20.3978 10.5 20V12C10.5 11.6022 10.658 11.2206 10.9393 10.9393C11.2206 10.658 11.6022 10.5 12 10.5C12.3978 10.5 12.7794 10.658 13.0607 10.9393C13.342 11.2206 13.5 11.6022 13.5 12ZM19.5 12V20C19.5 20.3978 19.342 20.7794 19.0607 21.0607C18.7794 21.342 18.3978 21.5 18 21.5C17.6022 21.5 17.2206 21.342 16.9393 21.0607C16.658 20.7794 16.5 20.3978 16.5 20V12C16.5 11.6022 16.658 11.2206 16.9393 10.9393C17.2206 10.658 17.6022 10.5 18 10.5C18.3978 10.5 18.7794 10.658 19.0607 10.9393C19.342 11.2206 19.5 11.6022 19.5 12Z" fill="#FAFAFA"/>
</svg>
